<svg width="14" height="14" viewBox="0 0 14 14" fill="none" xmlns="http://www.w3.org/2000/svg">
<path d="M12.1427 12.0045H1.84146C1.69532 12.0045 1.56946 11.9017 1.54042 11.7584L0.0831448 4.61669C0.058711 4.49713 0.107271 4.3745 0.207004 4.30412C0.306584 4.23358 0.438434 4.22897 0.542931 4.29198L4.47463 6.66175L6.71685 2.15025C6.76833 2.04668 6.87375 1.9806 6.98947 1.97968C7.09842 1.97922 7.21152 2.04284 7.26485 2.14564L9.58145 6.6175L13.4414 4.29213C13.546 4.22913 13.6776 4.23389 13.7773 4.30427C13.877 4.37465 13.9256 4.49728 13.9013 4.61684L12.444 11.7586C12.4145 11.9017 12.2887 12.0045 12.1427 12.0045Z" fill="#8666F7"/>
</svg>
