<svg width="110" height="110" viewBox="0 0 110 110" fill="none" xmlns="http://www.w3.org/2000/svg">
<g clip-path="url(#clip0_48_12)">
<circle cx="55" cy="55" r="55" fill="#6563E3"/>
<circle cx="55" cy="55" r="45" fill="#252A43"/>
<path d="M55.9223 29.6001C59.4257 26.8768 63.0296 25.7777 66.7342 26.3026C70.4724 26.8014 73.8079 28.9372 76.7407 32.7101L89.5453 49.1827L80.9552 55.86L69.054 40.5495C67.64 38.7304 66.0649 37.7121 64.3286 37.4946C62.5998 37.2172 60.8933 37.7331 59.2089 39.0424C57.5246 40.3517 56.5868 41.8913 56.3954 43.6612C56.2116 45.3713 56.8267 47.1359 58.2407 48.955L70.1419 64.2655L61.5518 70.9427L49.6506 55.6322C48.2366 53.8132 46.6615 52.7949 44.9252 52.5773C43.1964 52.2999 41.4899 52.8159 39.8055 54.1251C38.1212 55.4344 37.1834 56.974 36.992 58.744C36.8082 60.4541 37.4233 62.2186 38.8373 64.0377L50.7385 79.3482L42.0979 86.0647L20.1808 57.8692L28.8214 51.1526L31.5709 54.6897C31.5302 52.8299 31.9555 51.0132 32.8466 49.2397C33.7115 47.4325 35.0367 45.835 36.8221 44.4472C38.9443 42.7975 41.1843 41.7859 43.5419 41.4123C45.9332 41.0126 48.2551 41.2883 50.5076 42.2394C50.28 39.9305 50.6287 37.6329 51.5536 35.3468C52.4786 33.0606 53.9348 31.145 55.9223 29.6001Z" fill="#EDEDED"/>
</g>
<defs>
<clipPath id="clip0_48_12">
<rect width="110" height="110" fill="white"/>
</clipPath>
</defs>
</svg>
