<svg width="616" height="218" viewBox="0 0 616 218" fill="none" xmlns="http://www.w3.org/2000/svg">
<rect x="36" y="45" width="160" height="166" rx="12" fill="#1C1F37"/>
<rect x="228" width="160" height="211" rx="12" fill="#1C1F37"/>
<rect x="420" y="67" width="160" height="144" rx="12" fill="#1C1F37"/>
<rect y="164" width="616" height="54" rx="12" fill="#1C1F37"/>
<path d="M133.392 145.936V138.32H113.936L122.384 131.088C129.488 125.008 133.072 120.08 133.072 113.552C133.072 104.08 126.864 98.384 116.88 98.384C106.96 98.384 100.432 105.04 100.368 115.28H108.496C108.56 109.264 111.76 105.68 116.88 105.68C121.808 105.68 124.688 108.688 124.688 114C124.688 118.48 122.576 121.552 116.24 126.928L100.944 139.856V146L133.392 145.936Z" fill="#8666F7"/>
<path d="M499.468 127.176C504.772 127.176 507.268 129.984 507.268 133.832C507.268 138.044 504.512 140.748 500.352 140.748C496.296 140.748 493.592 138.252 493.592 133.884H487.04C487.04 142.1 492.812 146.676 500.248 146.676C507.944 146.676 514.028 141.736 514.028 133.936C514.028 127.228 509.504 122.964 503.68 121.82L512.936 113.292V107.988H488.808V113.864H504.616L494.84 122.86V127.176H499.468Z" fill="#8666F7"/>
<path d="M294.097 146V139.28H304.657V89.36L295.057 95.6L291.217 90.32L305.617 78.8H314.257V139.28H324.817V146H294.097Z" fill="#8666F7"/>
</svg>
