<svg width="24" height="24" viewBox="0 0 24 24" fill="none" xmlns="http://www.w3.org/2000/svg">
<mask id="mask0_92_51" style="mask-type:alpha" maskUnits="userSpaceOnUse" x="0" y="0" width="24" height="24">
<rect width="24" height="24" fill="#D9D9D9"/>
</mask>
<g mask="url(#mask0_92_51)">
<path d="M12 18.275L7.85 20.775C7.66667 20.8917 7.475 20.9417 7.275 20.925C7.075 20.9083 6.9 20.8417 6.75 20.725C6.6 20.6083 6.48334 20.4627 6.4 20.288C6.31667 20.1127 6.3 19.9167 6.35 19.7L7.45 14.975L3.775 11.8C3.60834 11.65 3.50434 11.479 3.463 11.287C3.421 11.0957 3.43334 10.9083 3.5 10.725C3.56667 10.5417 3.66667 10.3917 3.8 10.275C3.93333 10.1583 4.11667 10.0833 4.35 10.05L9.2 9.625L11.075 5.175C11.1583 4.975 11.2877 4.825 11.463 4.725C11.6377 4.625 11.8167 4.575 12 4.575C12.1833 4.575 12.3627 4.625 12.538 4.725C12.7127 4.825 12.8417 4.975 12.925 5.175L14.8 9.625L19.65 10.05C19.8833 10.0833 20.0667 10.1583 20.2 10.275C20.3333 10.3917 20.4333 10.5417 20.5 10.725C20.5667 10.9083 20.5793 11.0957 20.538 11.287C20.496 11.479 20.3917 11.65 20.225 11.8L16.55 14.975L17.65 19.7C17.7 19.9167 17.6833 20.1127 17.6 20.288C17.5167 20.4627 17.4 20.6083 17.25 20.725C17.1 20.8417 16.925 20.9083 16.725 20.925C16.525 20.9417 16.3333 20.8917 16.15 20.775L12 18.275Z" fill="#8566F6"/>
</g>
</svg>
