<svg width="118" height="93" viewBox="0 0 118 93" fill="none" xmlns="http://www.w3.org/2000/svg">
<path d="M13.872 47.12C13.44 46.288 12.84 45.664 12.072 45.248C11.304 44.816 10.416 44.6 9.408 44.6C8.304 44.6 7.32 44.848 6.456 45.344C5.592 45.84 4.912 46.544 4.416 47.456C3.936 48.368 3.696 49.424 3.696 50.624C3.696 51.824 3.936 52.888 4.416 53.816C4.912 54.728 5.592 55.432 6.456 55.928C7.32 56.424 8.304 56.672 9.408 56.672C10.896 56.672 12.104 56.256 13.032 55.424C13.96 54.592 14.528 53.464 14.736 52.04H8.472V49.856H17.664V51.992C17.488 53.288 17.024 54.48 16.272 55.568C15.536 56.656 14.568 57.528 13.368 58.184C12.184 58.824 10.864 59.144 9.408 59.144C7.84 59.144 6.408 58.784 5.112 58.064C3.816 57.328 2.784 56.312 2.016 55.016C1.264 53.72 0.888 52.256 0.888 50.624C0.888 48.992 1.264 47.528 2.016 46.232C2.784 44.936 3.816 43.928 5.112 43.208C6.424 42.472 7.856 42.104 9.408 42.104C11.184 42.104 12.76 42.544 14.136 43.424C15.528 44.288 16.536 45.52 17.16 47.12H13.872ZM19.4505 52.328C19.4505 51 19.7225 49.824 20.2665 48.8C20.8265 47.776 21.5785 46.984 22.5225 46.424C23.4825 45.848 24.5385 45.56 25.6905 45.56C26.7305 45.56 27.6345 45.768 28.4025 46.184C29.1865 46.584 29.8105 47.088 30.2745 47.696V45.776H33.0345V59H30.2745V57.032C29.8105 57.656 29.1785 58.176 28.3785 58.592C27.5785 59.008 26.6665 59.216 25.6425 59.216C24.5065 59.216 23.4665 58.928 22.5225 58.352C21.5785 57.76 20.8265 56.944 20.2665 55.904C19.7225 54.848 19.4505 53.656 19.4505 52.328ZM30.2745 52.376C30.2745 51.464 30.0825 50.672 29.6985 50C29.3305 49.328 28.8425 48.816 28.2345 48.464C27.6265 48.112 26.9705 47.936 26.2665 47.936C25.5625 47.936 24.9065 48.112 24.2985 48.464C23.6905 48.8 23.1945 49.304 22.8105 49.976C22.4425 50.632 22.2585 51.416 22.2585 52.328C22.2585 53.24 22.4425 54.04 22.8105 54.728C23.1945 55.416 23.6905 55.944 24.2985 56.312C24.9225 56.664 25.5785 56.84 26.2665 56.84C26.9705 56.84 27.6265 56.664 28.2345 56.312C28.8425 55.96 29.3305 55.448 29.6985 54.776C30.0825 54.088 30.2745 53.288 30.2745 52.376ZM52.6361 45.56C53.6761 45.56 54.6041 45.776 55.4201 46.208C56.2521 46.64 56.9001 47.28 57.3641 48.128C57.8441 48.976 58.0841 50 58.0841 51.2V59H55.3721V51.608C55.3721 50.424 55.0761 49.52 54.4841 48.896C53.8921 48.256 53.0841 47.936 52.0601 47.936C51.0361 47.936 50.2201 48.256 49.6121 48.896C49.0201 49.52 48.7241 50.424 48.7241 51.608V59H46.0121V51.608C46.0121 50.424 45.7161 49.52 45.1241 48.896C44.5321 48.256 43.7241 47.936 42.7001 47.936C41.6761 47.936 40.8601 48.256 40.2521 48.896C39.6601 49.52 39.3641 50.424 39.3641 51.608V59H36.6281V45.776H39.3641V47.288C39.8121 46.744 40.3801 46.32 41.0681 46.016C41.7561 45.712 42.4921 45.56 43.2761 45.56C44.3321 45.56 45.2761 45.784 46.1081 46.232C46.9401 46.68 47.5801 47.328 48.0281 48.176C48.4281 47.376 49.0521 46.744 49.9001 46.28C50.7481 45.8 51.6601 45.56 52.6361 45.56ZM73.6856 52.064C73.6856 52.56 73.6536 53.008 73.5896 53.408H63.4856C63.5656 54.464 63.9576 55.312 64.6616 55.952C65.3656 56.592 66.2296 56.912 67.2536 56.912C68.7256 56.912 69.7656 56.296 70.3736 55.064H73.3256C72.9256 56.28 72.1976 57.28 71.1416 58.064C70.1016 58.832 68.8056 59.216 67.2536 59.216C65.9896 59.216 64.8536 58.936 63.8456 58.376C62.8536 57.8 62.0696 57 61.4936 55.976C60.9336 54.936 60.6536 53.736 60.6536 52.376C60.6536 51.016 60.9256 49.824 61.4696 48.8C62.0296 47.76 62.8056 46.96 63.7976 46.4C64.8056 45.84 65.9576 45.56 67.2536 45.56C68.5016 45.56 69.6136 45.832 70.5896 46.376C71.5656 46.92 72.3256 47.688 72.8696 48.68C73.4136 49.656 73.6856 50.784 73.6856 52.064ZM70.8296 51.2C70.8136 50.192 70.4536 49.384 69.7496 48.776C69.0456 48.168 68.1736 47.864 67.1336 47.864C66.1896 47.864 65.3816 48.168 64.7096 48.776C64.0376 49.368 63.6376 50.176 63.5096 51.2H70.8296ZM81.1781 59.216C80.1381 59.216 79.2021 59.032 78.3701 58.664C77.5541 58.28 76.9061 57.768 76.4261 57.128C75.9461 56.472 75.6901 55.744 75.6581 54.944H78.4901C78.5381 55.504 78.8021 55.976 79.2821 56.36C79.7781 56.728 80.3941 56.912 81.1301 56.912C81.8981 56.912 82.4901 56.768 82.9061 56.48C83.3381 56.176 83.5541 55.792 83.5541 55.328C83.5541 54.832 83.3141 54.464 82.8341 54.224C82.3701 53.984 81.6261 53.72 80.6021 53.432C79.6101 53.16 78.8021 52.896 78.1781 52.64C77.5541 52.384 77.0101 51.992 76.5461 51.464C76.0981 50.936 75.8741 50.24 75.8741 49.376C75.8741 48.672 76.0821 48.032 76.4981 47.456C76.9141 46.864 77.5061 46.4 78.2741 46.064C79.0581 45.728 79.9541 45.56 80.9621 45.56C82.4661 45.56 83.6741 45.944 84.5861 46.712C85.5141 47.464 86.0101 48.496 86.0741 49.808H83.3381C83.2901 49.216 83.0501 48.744 82.6181 48.392C82.1861 48.04 81.6021 47.864 80.8661 47.864C80.1461 47.864 79.5941 48 79.2101 48.272C78.8261 48.544 78.6341 48.904 78.6341 49.352C78.6341 49.704 78.7621 50 79.0181 50.24C79.2741 50.48 79.5861 50.672 79.9541 50.816C80.3221 50.944 80.8661 51.112 81.5861 51.32C82.5461 51.576 83.3301 51.84 83.9381 52.112C84.5621 52.368 85.0981 52.752 85.5461 53.264C85.9941 53.776 86.2261 54.456 86.2421 55.304C86.2421 56.056 86.0341 56.728 85.6181 57.32C85.2021 57.912 84.6101 58.376 83.8421 58.712C83.0901 59.048 82.2021 59.216 81.1781 59.216ZM0.888 80.328C0.888 79 1.16 77.824 1.704 76.8C2.264 75.776 3.016 74.984 3.96 74.424C4.92 73.848 5.984 73.56 7.152 73.56C8.016 73.56 8.864 73.752 9.696 74.136C10.544 74.504 11.216 75 11.712 75.624V69.24H14.472V87H11.712V85.008C11.264 85.648 10.64 86.176 9.84 86.592C9.056 87.008 8.152 87.216 7.128 87.216C5.976 87.216 4.92 86.928 3.96 86.352C3.016 85.76 2.264 84.944 1.704 83.904C1.16 82.848 0.888 81.656 0.888 80.328ZM11.712 80.376C11.712 79.464 11.52 78.672 11.136 78C10.768 77.328 10.28 76.816 9.672 76.464C9.064 76.112 8.408 75.936 7.704 75.936C7 75.936 6.344 76.112 5.736 76.464C5.128 76.8 4.632 77.304 4.248 77.976C3.88 78.632 3.696 79.416 3.696 80.328C3.696 81.24 3.88 82.04 4.248 82.728C4.632 83.416 5.128 83.944 5.736 84.312C6.36 84.664 7.016 84.84 7.704 84.84C8.408 84.84 9.064 84.664 9.672 84.312C10.28 83.96 10.768 83.448 11.136 82.776C11.52 82.088 11.712 81.288 11.712 80.376ZM17.1536 80.328C17.1536 79 17.4256 77.824 17.9696 76.8C18.5296 75.776 19.2816 74.984 20.2256 74.424C21.1856 73.848 22.2416 73.56 23.3936 73.56C24.4336 73.56 25.3376 73.768 26.1056 74.184C26.8896 74.584 27.5136 75.088 27.9776 75.696V73.776H30.7376V87H27.9776V85.032C27.5136 85.656 26.8816 86.176 26.0816 86.592C25.2816 87.008 24.3696 87.216 23.3456 87.216C22.2096 87.216 21.1696 86.928 20.2256 86.352C19.2816 85.76 18.5296 84.944 17.9696 83.904C17.4256 82.848 17.1536 81.656 17.1536 80.328ZM27.9776 80.376C27.9776 79.464 27.7856 78.672 27.4016 78C27.0336 77.328 26.5456 76.816 25.9376 76.464C25.3296 76.112 24.6736 75.936 23.9696 75.936C23.2656 75.936 22.6096 76.112 22.0016 76.464C21.3936 76.8 20.8976 77.304 20.5136 77.976C20.1456 78.632 19.9616 79.416 19.9616 80.328C19.9616 81.24 20.1456 82.04 20.5136 82.728C20.8976 83.416 21.3936 83.944 22.0016 84.312C22.6256 84.664 23.2816 84.84 23.9696 84.84C24.6736 84.84 25.3296 84.664 25.9376 84.312C26.5456 83.96 27.0336 83.448 27.4016 82.776C27.7856 82.088 27.9776 81.288 27.9776 80.376ZM37.5233 76.008V83.328C37.5233 83.824 37.6353 84.184 37.8593 84.408C38.0993 84.616 38.4993 84.72 39.0593 84.72H40.7393V87H38.5793C37.3473 87 36.4033 86.712 35.7473 86.136C35.0913 85.56 34.7633 84.624 34.7633 83.328V76.008H33.2033V73.776H34.7633V70.488H37.5233V73.776H40.7393V76.008H37.5233ZM42.3489 80.328C42.3489 79 42.6209 77.824 43.1649 76.8C43.7249 75.776 44.4769 74.984 45.4209 74.424C46.3809 73.848 47.4369 73.56 48.5889 73.56C49.6289 73.56 50.5329 73.768 51.3009 74.184C52.0849 74.584 52.7089 75.088 53.1729 75.696V73.776H55.9329V87H53.1729V85.032C52.7089 85.656 52.0769 86.176 51.2769 86.592C50.4769 87.008 49.5649 87.216 48.5409 87.216C47.4049 87.216 46.3649 86.928 45.4209 86.352C44.4769 85.76 43.7249 84.944 43.1649 83.904C42.6209 82.848 42.3489 81.656 42.3489 80.328ZM53.1729 80.376C53.1729 79.464 52.9809 78.672 52.5969 78C52.2289 77.328 51.7409 76.816 51.1329 76.464C50.5249 76.112 49.8689 75.936 49.1649 75.936C48.4609 75.936 47.8049 76.112 47.1969 76.464C46.5889 76.8 46.0929 77.304 45.7089 77.976C45.3409 78.632 45.1569 79.416 45.1569 80.328C45.1569 81.24 45.3409 82.04 45.7089 82.728C46.0929 83.416 46.5889 83.944 47.1969 84.312C47.8209 84.664 48.4769 84.84 49.1649 84.84C49.8689 84.84 50.5249 84.664 51.1329 84.312C51.7409 83.96 52.2289 83.448 52.5969 82.776C52.9809 82.088 53.1729 81.288 53.1729 80.376ZM62.2626 75.744C62.7266 75.104 63.3586 74.584 64.1586 74.184C64.9746 73.768 65.8786 73.56 66.8706 73.56C68.0386 73.56 69.0946 73.84 70.0386 74.4C70.9826 74.96 71.7266 75.76 72.2706 76.8C72.8146 77.824 73.0866 79 73.0866 80.328C73.0866 81.656 72.8146 82.848 72.2706 83.904C71.7266 84.944 70.9746 85.76 70.0146 86.352C69.0706 86.928 68.0226 87.216 66.8706 87.216C65.8466 87.216 64.9346 87.016 64.1346 86.616C63.3506 86.216 62.7266 85.704 62.2626 85.08V87H59.5266V69.24H62.2626V75.744ZM70.3026 80.328C70.3026 79.416 70.1106 78.632 69.7266 77.976C69.3586 77.304 68.8626 76.8 68.2386 76.464C67.6306 76.112 66.9746 75.936 66.2706 75.936C65.5826 75.936 64.9266 76.112 64.3026 76.464C63.6946 76.816 63.1986 77.328 62.8146 78C62.4466 78.672 62.2626 79.464 62.2626 80.376C62.2626 81.288 62.4466 82.088 62.8146 82.776C63.1986 83.448 63.6946 83.96 64.3026 84.312C64.9266 84.664 65.5826 84.84 66.2706 84.84C66.9746 84.84 67.6306 84.664 68.2386 84.312C68.8626 83.944 69.3586 83.416 69.7266 82.728C70.1106 82.04 70.3026 81.24 70.3026 80.328ZM74.8802 80.328C74.8802 79 75.1522 77.824 75.6962 76.8C76.2562 75.776 77.0082 74.984 77.9522 74.424C78.9122 73.848 79.9682 73.56 81.1202 73.56C82.1602 73.56 83.0642 73.768 83.8322 74.184C84.6162 74.584 85.2402 75.088 85.7042 75.696V73.776H88.4642V87H85.7042V85.032C85.2402 85.656 84.6082 86.176 83.8082 86.592C83.0082 87.008 82.0962 87.216 81.0722 87.216C79.9362 87.216 78.8962 86.928 77.9522 86.352C77.0082 85.76 76.2562 84.944 75.6962 83.904C75.1522 82.848 74.8802 81.656 74.8802 80.328ZM85.7042 80.376C85.7042 79.464 85.5122 78.672 85.1282 78C84.7602 77.328 84.2722 76.816 83.6642 76.464C83.0562 76.112 82.4002 75.936 81.6962 75.936C80.9922 75.936 80.3362 76.112 79.7282 76.464C79.1202 76.8 78.6242 77.304 78.2402 77.976C77.8722 78.632 77.6882 79.416 77.6882 80.328C77.6882 81.24 77.8722 82.04 78.2402 82.728C78.6242 83.416 79.1202 83.944 79.7282 84.312C80.3522 84.664 81.0082 84.84 81.6962 84.84C82.4002 84.84 83.0562 84.664 83.6642 84.312C84.2722 83.96 84.7602 83.448 85.1282 82.776C85.5122 82.088 85.7042 81.288 85.7042 80.376ZM96.8578 87.216C95.8178 87.216 94.8818 87.032 94.0498 86.664C93.2338 86.28 92.5858 85.768 92.1058 85.128C91.6258 84.472 91.3698 83.744 91.3378 82.944H94.1698C94.2178 83.504 94.4818 83.976 94.9618 84.36C95.4578 84.728 96.0738 84.912 96.8098 84.912C97.5778 84.912 98.1698 84.768 98.5858 84.48C99.0178 84.176 99.2338 83.792 99.2338 83.328C99.2338 82.832 98.9938 82.464 98.5138 82.224C98.0498 81.984 97.3058 81.72 96.2818 81.432C95.2898 81.16 94.4818 80.896 93.8578 80.64C93.2338 80.384 92.6898 79.992 92.2258 79.464C91.7778 78.936 91.5538 78.24 91.5538 77.376C91.5538 76.672 91.7618 76.032 92.1778 75.456C92.5938 74.864 93.1858 74.4 93.9538 74.064C94.7378 73.728 95.6338 73.56 96.6418 73.56C98.1458 73.56 99.3538 73.944 100.266 74.712C101.194 75.464 101.69 76.496 101.754 77.808H99.0178C98.9698 77.216 98.7298 76.744 98.2978 76.392C97.8658 76.04 97.2818 75.864 96.5458 75.864C95.8258 75.864 95.2738 76 94.8898 76.272C94.5058 76.544 94.3138 76.904 94.3138 77.352C94.3138 77.704 94.4418 78 94.6978 78.24C94.9538 78.48 95.2658 78.672 95.6338 78.816C96.0018 78.944 96.5458 79.112 97.2658 79.32C98.2258 79.576 99.0098 79.84 99.6178 80.112C100.242 80.368 100.778 80.752 101.226 81.264C101.674 81.776 101.906 82.456 101.922 83.304C101.922 84.056 101.714 84.728 101.298 85.32C100.882 85.912 100.29 86.376 99.5218 86.712C98.7698 87.048 97.8818 87.216 96.8578 87.216ZM116.998 80.064C116.998 80.56 116.966 81.008 116.902 81.408H106.798C106.878 82.464 107.27 83.312 107.974 83.952C108.678 84.592 109.542 84.912 110.566 84.912C112.038 84.912 113.078 84.296 113.686 83.064H116.638C116.238 84.28 115.51 85.28 114.454 86.064C113.414 86.832 112.118 87.216 110.566 87.216C109.302 87.216 108.166 86.936 107.158 86.376C106.166 85.8 105.382 85 104.806 83.976C104.246 82.936 103.966 81.736 103.966 80.376C103.966 79.016 104.238 77.824 104.782 76.8C105.342 75.76 106.118 74.96 107.11 74.4C108.118 73.84 109.27 73.56 110.566 73.56C111.814 73.56 112.926 73.832 113.902 74.376C114.878 74.92 115.638 75.688 116.182 76.68C116.726 77.656 116.998 78.784 116.998 80.064ZM114.142 79.2C114.126 78.192 113.766 77.384 113.062 76.776C112.358 76.168 111.486 75.864 110.446 75.864C109.502 75.864 108.694 76.168 108.022 76.776C107.35 77.368 106.95 78.176 106.822 79.2H114.142Z" fill="#7F7DE8"/>
<mask id="mask0_13_119" style="mask-type:alpha" maskUnits="userSpaceOnUse" x="0" y="0" width="27" height="30">
<rect width="27" height="29.9326" fill="#D9D9D9"/>
</mask>
<g mask="url(#mask0_13_119)">
<path d="M13.5 13.7191C10.6875 13.7191 8.29688 13.2306 6.32813 12.2537C4.35938 11.2767 3.375 10.1023 3.375 8.73034C3.375 7.35843 4.35938 6.18399 6.32813 5.20703C8.29688 4.23006 10.6875 3.74158 13.5 3.74158C16.3125 3.74158 18.7031 4.23006 20.6719 5.20703C22.6406 6.18399 23.625 7.35843 23.625 8.73034C23.625 10.1023 22.6406 11.2767 20.6719 12.2537C18.7031 13.2306 16.3125 13.7191 13.5 13.7191ZM13.5 19.9551C10.6875 19.9551 8.29688 19.4666 6.32813 18.4896C4.35938 17.5126 3.375 16.3382 3.375 14.9663V11.8483C3.375 12.7629 3.75938 13.5374 4.52813 14.1718C5.29688 14.8054 6.21563 15.3197 7.28438 15.7146C8.35313 16.1096 9.46425 16.3952 10.6178 16.5714C11.7705 16.7485 12.7313 16.8371 13.5 16.8371C14.2688 16.8371 15.2295 16.7485 16.3823 16.5714C17.5358 16.3952 18.6469 16.1096 19.7156 15.7146C20.7844 15.3197 21.7031 14.8054 22.4719 14.1718C23.2406 13.5374 23.625 12.7629 23.625 11.8483V14.9663C23.625 16.3382 22.6406 17.5126 20.6719 18.4896C18.7031 19.4666 16.3125 19.9551 13.5 19.9551ZM13.5 26.191C10.6875 26.191 8.29688 25.7025 6.32813 24.7256C4.35938 23.7486 3.375 22.5742 3.375 21.2023V18.0843C3.375 18.9989 3.75938 19.7734 4.52813 20.4078C5.29688 21.0414 6.21563 21.5556 7.28438 21.9506C8.35313 22.3455 9.46425 22.6315 10.6178 22.8086C11.7705 22.9849 12.7313 23.073 13.5 23.073C14.2688 23.073 15.2295 22.9849 16.3823 22.8086C17.5358 22.6315 18.6469 22.3455 19.7156 21.9506C20.7844 21.5556 21.7031 21.0414 22.4719 20.4078C23.2406 19.7734 23.625 18.9989 23.625 18.0843V21.2023C23.625 22.5742 22.6406 23.7486 20.6719 24.7256C18.7031 25.7025 16.3125 26.191 13.5 26.191Z" fill="#7F7DE8"/>
</g>
</svg>
