<svg width="194" height="332" viewBox="0 0 194 332" fill="none" xmlns="http://www.w3.org/2000/svg">
<path d="M180.595 11.1222L179.315 10.397L178.086 9.68735L177.13 9.13526L175.868 11.3207L163.067 33.4932L161.805 35.6785L165.263 37.6749L166.349 38.3018C170.032 40.4286 174.825 39.0807 176.965 35.4084L176.965 35.4086L176.978 35.3873C176.979 35.3853 176.98 35.3834 176.981 35.3814L177.608 34.2955L178.132 33.3882L183.839 23.5024L183.841 23.5034L184.468 22.4174C186.6 18.7246 185.374 13.8813 181.681 11.7492L180.595 11.1222ZM168.042 3.87501C164.359 1.74818 159.566 3.09606 157.426 6.76837L157.426 6.76819L157.413 6.78949C157.412 6.79146 157.411 6.79338 157.41 6.79536L156.783 7.88132L156.259 8.78856L150.551 18.6744L150.55 18.6734L149.923 19.7594C147.791 23.4522 149.017 28.2955 152.71 30.4276L153.796 31.0546L158.989 34.0529L160.251 31.8676L173.052 9.6951L174.314 7.50965L173.358 6.95757L172.129 6.24793L169.122 4.51229L169.128 4.502L168.042 3.87501ZM166.861 6.11685L166.859 6.11955L167.861 6.6977L170.867 8.43338L169.762 10.3463L158.066 30.6059L155.058 28.8692L154.133 28.3356C150.837 26.0087 150.946 23.3628 152.411 20.5014L152.737 19.9362L158.968 9.14333L160.999 10.3155C160.973 10.3527 160.949 10.3905 160.925 10.4288C160.542 11.0925 160.438 11.8813 160.637 12.6216C160.835 13.3618 161.319 13.993 161.983 14.3762C162.647 14.7594 163.436 14.8632 164.176 14.6649C164.916 14.4665 165.547 13.9822 165.931 13.3185C166.202 12.8472 166.335 12.3088 166.314 11.7654C166.292 11.222 166.119 10.6955 165.812 10.2465C165.812 10.2465 165.812 10.2465 165.812 10.2465C165.568 9.88798 165.248 9.58879 164.873 9.37106C164.229 9.00063 163.468 8.89207 162.747 9.06789C162.025 9.2437 161.399 9.69041 160.999 10.3154L158.968 9.14309L159.271 8.61818C161.008 5.91437 163.228 4.47636 166.861 6.11685ZM175.532 24.1058C177.028 24.9693 177.532 26.8515 176.669 28.3471C175.805 29.8427 173.923 30.3471 172.427 29.4836C170.932 28.6201 170.427 26.7379 171.291 25.2423C172.154 23.7466 174.037 23.2423 175.532 24.1058Z" fill="#252A43"/>
<g clip-path="url(#clip0_13_180)">
<path d="M152.061 322.288C146.108 323.287 139.675 322.779 133.745 320.84C128.777 319.215 127.518 318.337 126.911 316.074C125.694 311.53 128.561 302.229 134.684 290.862C138.161 284.407 143.31 276.552 144.086 276.52C145.594 276.456 159.94 284.498 165.597 288.577C174.543 295.028 179.45 300.957 178.684 304.392C178.103 307.003 171.884 313.468 166.895 316.648C162.783 319.269 157.045 321.451 152.061 322.288ZM119.933 312.88C114.974 308.432 111.776 303.603 108.863 296.159C107.901 293.701 107.614 292.224 107.045 286.803C106.336 280.045 108.02 271.557 111.221 265.753C112.585 263.281 112.741 263.188 115.253 263.346C118.303 263.538 121.844 264.8 127.6 267.746L130.958 269.465L129.967 271.674C125.369 281.925 121.33 295.792 120.581 303.902C120.173 308.311 120.654 312.498 121.741 314.004C122.475 315.02 121.967 314.704 119.933 312.88ZM181.872 297.265C181.766 295.478 180.493 292.485 178.623 289.623C174.573 283.424 163.735 272.778 154.59 266.015L151.711 263.886L153.468 261.124C155.763 257.517 157.427 255.279 159.326 253.248C160.824 251.646 163.128 249.966 164.233 249.67C164.914 249.487 167.978 251.332 170.641 253.527C174.766 256.928 178.337 261.433 180.876 266.438C182.516 269.672 184.542 276.993 184.792 280.59C184.998 283.543 184.819 287.492 184.355 290.262C184.007 292.338 182.872 296.492 182.266 297.907C181.955 298.635 181.954 298.633 181.872 297.265ZM134.999 256.127C131.413 255.371 126.083 254.956 123.269 255.214C122.282 255.305 120.649 255.645 119.64 255.971C117.45 256.678 117.518 256.535 120.628 253.9C123.214 251.709 125.463 250.226 128.626 248.624C132.185 246.822 139.27 244.914 143.19 244.701C147.424 244.471 152.614 244.962 155.712 245.885L156.632 246.159L154.794 246.554C151.142 247.338 146.28 250.2 141.377 254.453C139.898 255.736 138.595 256.793 138.482 256.802C138.369 256.811 136.802 256.508 134.999 256.127Z" fill="#252A43"/>
</g>
<g clip-path="url(#clip1_13_180)">
<path d="M1.27726 142.512C4.07547 151.842 12.7298 158.646 22.9709 158.646C35.4779 158.646 45.617 148.507 45.617 136C45.617 123.493 35.4779 113.354 22.9709 113.354C10.9698 113.354 1.14917 122.69 0.373535 134.495C1.84129 136.956 2.41098 138.478 1.27584 142.512H1.27726Z" fill="#252A43"/>
<path d="M21.8038 130.328L21.8059 130.44L16.2647 138.49C15.3674 138.449 14.4672 138.606 13.6123 138.958C13.2401 139.109 12.8848 139.299 12.5522 139.524L0.383395 134.509C0.383395 134.509 0.101733 139.141 1.27509 142.594L9.87779 146.143C10.3024 148.074 11.6329 149.767 13.5875 150.581C15.1253 151.22 16.8538 151.222 18.3934 150.588C19.933 149.953 21.1578 148.733 21.7989 147.196C22.1409 146.378 22.3058 145.496 22.2829 144.609L30.2041 138.944L30.3987 138.948C35.1438 138.948 39.0007 135.079 39.0007 130.328C39.0007 125.576 35.1509 121.722 30.3987 121.712C25.6558 121.712 21.7967 125.576 21.7967 130.328H21.8038ZM20.4734 146.64C19.4444 149.117 16.6051 150.283 14.1374 149.254C13.0423 148.794 12.1547 147.947 11.6435 146.875L14.4438 148.036C14.8764 148.216 15.3403 148.309 15.8088 148.31C16.2774 148.31 16.7416 148.219 17.1747 148.04C17.6079 147.861 18.0016 147.599 18.3334 147.268C18.6651 146.937 18.9284 146.544 19.1082 146.112C19.4723 145.237 19.4745 144.254 19.1142 143.378C18.754 142.502 18.0607 141.805 17.1868 141.44L14.2853 140.24C15.402 139.816 16.6716 139.802 17.8591 140.295C19.0622 140.792 19.9822 141.729 20.4748 142.928C20.9673 144.126 20.9645 145.447 20.4677 146.64M30.4065 136.071C28.886 136.067 27.4291 135.46 26.355 134.384C25.2808 133.308 24.6769 131.85 24.6756 130.329C24.6773 128.809 25.2814 127.351 26.3555 126.276C27.4296 125.2 28.8863 124.593 30.4065 124.589C31.927 124.593 33.3841 125.199 34.4585 126.275C35.5329 127.351 36.1372 128.809 36.1388 130.329C36.1375 131.85 35.5335 133.308 34.459 134.384C33.3845 135.461 31.9273 136.067 30.4065 136.071ZM26.1123 130.32C26.1113 129.178 26.564 128.082 27.3708 127.273C28.1777 126.464 29.2726 126.009 30.415 126.007C32.7893 126.007 34.7206 127.939 34.7206 130.32C34.7212 131.463 34.2679 132.559 33.4606 133.367C32.6532 134.176 31.5577 134.631 30.415 134.632C29.2727 134.63 28.1778 134.175 27.3709 133.367C26.5639 132.558 26.1117 131.462 26.1123 130.32Z" fill="#1D2135"/>
</g>
<defs>
<clipPath id="clip0_13_180">
<rect width="78" height="78" fill="white" transform="translate(98 256.188) rotate(-15)"/>
</clipPath>
<clipPath id="clip1_13_180">
<rect width="46" height="46" fill="white" transform="translate(0 113)"/>
</clipPath>
</defs>
</svg>
