<svg width="253" height="348" viewBox="0 0 253 348" fill="none" xmlns="http://www.w3.org/2000/svg">
<g clip-path="url(#clip0_13_181)">
<path fill-rule="evenodd" clip-rule="evenodd" d="M247.036 167.331C245.924 169.934 242.199 172.577 242.199 172.577L214.419 191.986L212.213 183.753L232.675 169.536C234.995 167.917 235.038 166.497 232.764 166.367C230.494 166.233 226.771 167.443 224.45 169.066L210.799 178.477L208.51 169.933L209.3 169.403C209.3 169.403 213.242 166.676 219.19 164.347C225.138 162.022 232.853 160.786 239.351 161.463C246.561 161.803 248.146 164.727 247.036 167.331ZM209.613 162.333L203.971 141.28C203.309 138.807 202.247 136.652 199.778 136.623C197.866 136.525 197.217 138.468 197.879 140.938L212.006 193.661L196.718 192.92L179.874 130.058C186.161 129.576 195.592 129.892 200.708 130.232C213.738 131.172 219.159 135.234 222.266 146.827C225.294 158.127 219.535 164.261 209.613 162.333ZM169.402 194.302C162.064 194.19 159.847 190.453 162.331 187.292C164.627 184.373 169.078 181.446 169.078 181.446L187.321 168.789L189.536 177.053L176.417 186.196C174.1 187.813 174.058 189.235 176.328 189.367C178.6 189.498 182.324 188.289 184.644 186.669L190.928 182.248L192.909 189.642C192.488 189.839 192.017 190.051 191.582 190.25C184.921 193.268 177.369 194.777 169.402 194.302ZM244.971 177.562C245.853 177.325 246.772 177.449 247.565 177.919C248.355 178.379 248.923 179.123 249.161 180.012C249.4 180.904 249.279 181.829 248.825 182.622C248.372 183.421 247.638 183.988 246.757 184.224C245.875 184.46 244.958 184.336 244.164 183.871C243.374 183.411 242.809 182.67 242.57 181.777C242.078 179.941 243.154 178.049 244.971 177.562ZM243.124 181.629C243.322 182.369 243.793 182.988 244.451 183.369C245.108 183.758 245.876 183.858 246.606 183.663C248.12 183.257 249.014 181.687 248.605 180.16C248.406 179.419 247.937 178.799 247.277 178.417C246.62 178.027 245.853 177.929 245.122 178.125C244.392 178.32 243.777 178.789 243.402 179.455C243.023 180.115 242.925 180.888 243.124 181.629ZM246.379 178.834C246.783 178.897 247.049 179.158 247.167 179.598C247.227 179.824 247.231 180.027 247.175 180.202C247.135 180.327 247.06 180.441 246.97 180.545C247.07 180.574 247.164 180.615 247.24 180.671C247.346 180.753 247.435 180.905 247.501 181.128L247.646 181.597C247.685 181.722 247.719 181.817 247.755 181.872C247.798 181.954 247.85 181.999 247.902 182.004L247.957 182.015L247.972 182.069L247.994 182.15L248.015 182.231L247.935 182.253L247.352 182.409L247.305 182.422L247.27 182.386C247.24 182.352 247.214 182.31 247.184 182.254C247.16 182.203 247.125 182.113 247.081 181.971L246.894 181.39C246.831 181.188 246.728 181.08 246.581 181.047C246.49 181.031 246.352 181.049 246.171 181.097L245.172 181.365L245.557 182.803L245.579 182.884L245.497 182.906L245.021 183.033L244.941 183.055L244.919 182.974L243.97 179.43L243.948 179.349L244.028 179.327L245.652 178.892C245.931 178.818 246.176 178.797 246.379 178.834ZM245.02 180.798L246.037 180.526C246.241 180.471 246.394 180.389 246.489 180.281C246.574 180.175 246.588 180.021 246.533 179.817C246.474 179.595 246.362 179.469 246.188 179.433C246.093 179.414 245.969 179.422 245.819 179.462L244.74 179.751L245.02 180.798Z" fill="#252A43"/>
</g>
<g clip-path="url(#clip1_13_181)">
<mask id="mask0_13_181" style="mask-type:luminance" maskUnits="userSpaceOnUse" x="61" y="279" width="86" height="83">
<path d="M61.8297 311.835L118.033 279.386L146.819 329.245L90.6157 361.694L61.8297 311.835Z" fill="white"/>
</mask>
<g mask="url(#mask0_13_181)">
<path fill-rule="evenodd" clip-rule="evenodd" d="M106.558 295.589L81.7526 309.911C79.742 311.072 79.4325 312.249 80.6048 314.28L94.7515 338.782C94.8842 339.012 95.0166 339.22 95.1509 339.407C95.4526 339.823 95.7091 340.248 96.3998 340.501C96.4674 340.526 97.0651 340.598 97.0651 340.598C97.3535 340.58 97.5538 340.573 97.866 340.53L113.063 338.644C113.867 338.571 114.198 338.533 114.653 338.258L114.653 338.258C114.654 338.257 114.655 338.257 114.655 338.257C114.656 338.256 114.656 338.256 114.657 338.256L114.657 338.256C115.123 337.999 115.322 337.731 115.787 337.072L125.019 324.854C125.212 324.605 125.318 324.435 125.478 324.194C125.478 324.194 125.714 323.64 125.727 323.569C125.853 322.845 125.613 322.41 125.403 321.94C125.309 321.731 125.195 321.512 125.062 321.282L110.916 296.78C109.743 294.749 108.569 294.428 106.558 295.589Z" fill="#252A43"/>
<path d="M119.119 321.183L119.146 321.243L119.177 321.308L119.198 321.371L119.214 321.437L119.232 321.494L119.248 321.561L119.255 321.624L119.259 321.683L119.266 321.746L119.264 321.807L119.262 321.869L119.255 321.933L119.253 321.995L119.243 322.053L119.227 322.116L119.213 322.169L119.191 322.234L119.172 322.29L119.147 322.35L119.118 322.404L119.093 322.463L119.059 322.521L119.022 322.572L118.988 322.629L118.945 322.684L118.903 322.739L118.857 322.788L118.811 322.837L118.771 322.883L118.721 322.927L118.678 322.967L118.634 323.007L118.585 323.051L118.532 323.089L118.486 323.123L118.433 323.161L118.375 323.202L118.323 323.24L118.267 323.272L118.206 323.307L118.144 323.343L118.088 323.375L118.03 323.402L117.968 323.437L117.909 323.463L117.85 323.49L117.786 323.52L117.723 323.541L117.665 323.567L117.602 323.588L117.54 323.609L117.478 323.63L117.415 323.651L117.35 323.666L117.293 323.684L117.228 323.699L117.162 323.714L117.099 323.72L117.033 323.736L116.973 323.748L116.905 323.757L116.841 323.764L116.778 323.77L116.712 323.771L116.649 323.777L116.582 323.778L116.521 323.775L116.455 323.776L116.394 323.774L116.333 323.771L116.269 323.763L116.205 323.755L116.14 323.747L116.076 323.738L116.018 323.727L115.95 323.713L115.958 323.649L115.974 323.587L115.981 323.522L115.994 323.454L116.005 323.395L116.012 323.331L116.025 323.263L116.035 323.204L116.049 323.137L116.059 323.078L116.072 323.01L116.079 322.946L116.09 322.887L116.103 322.819L116.11 322.754L116.126 322.692L116.134 322.628L116.198 322.636L116.267 322.641L116.332 322.649L116.401 322.654L116.463 322.656L116.532 322.661L116.593 322.664L116.656 322.657L116.717 322.66L116.78 322.654L116.844 322.647L116.907 322.641L116.967 322.629L117.03 322.623L117.096 322.607L117.161 322.592L117.221 322.58L117.283 322.559L117.346 322.538L117.408 322.518L117.472 322.488L117.535 322.467L117.59 322.435L117.655 322.405L117.711 322.373L117.777 322.334L117.835 322.293L117.885 322.25L117.928 322.209L117.972 322.169L118.007 322.126L118.033 322.081L118.058 322.022L118.068 321.963L118.065 321.905L118.052 321.844L118.025 321.784L118.018 321.773L117.974 321.708L117.919 321.665L117.868 321.642L117.809 321.63L117.745 321.622L117.688 321.625L117.624 321.631L117.555 321.641L117.472 321.651L117.427 321.663L117.376 321.677L117.316 321.689L117.259 321.707L117.194 321.722L117.131 321.743L117.06 321.761L116.998 321.782L116.927 321.801L116.865 321.821L116.799 321.837L116.737 321.857L116.671 321.873L116.611 321.885L116.549 321.906L116.489 321.918L116.429 321.93L116.369 321.942L116.295 321.954L116.226 321.964L116.157 321.974L116.088 321.983L116.022 321.984L115.95 321.988L115.889 321.985L115.822 321.986L115.758 321.978L115.697 321.975L115.639 321.964L115.577 321.947L115.515 321.93L115.459 321.91L115.403 321.889L115.352 321.866L115.298 321.837L115.241 321.802L115.196 321.776L115.153 321.74L115.107 321.699L115.064 321.663L115.02 321.613L114.98 321.569L114.941 321.516L114.903 321.462L114.862 321.403L114.826 321.341L114.819 321.33L114.787 321.273L114.76 321.214L114.736 321.159L114.709 321.1L114.691 321.042L114.672 320.985L114.66 320.924L114.642 320.867L114.634 320.804L114.627 320.74L114.62 320.676L114.619 320.609L114.617 320.542L114.624 320.478L114.632 320.413L114.645 320.345L114.661 320.283L114.674 320.216L114.696 320.15L114.718 320.099L114.744 320.04L114.768 319.98L114.797 319.926L114.831 319.869L114.868 319.817L114.901 319.76L114.939 319.708L114.985 319.659L115.027 319.605L115.068 319.559L115.106 319.522L115.149 319.481L115.193 319.441L115.242 319.398L115.286 319.357L115.338 319.32L115.391 319.282L115.443 319.244L115.496 319.206L115.551 319.174L115.613 319.138L115.674 319.103L115.735 319.068L115.8 319.038L115.864 319.008L115.92 318.976L115.985 318.946L116.047 318.925L116.112 318.896L116.174 318.875L116.231 318.857L116.293 318.836L116.355 318.815L116.412 318.798L116.478 318.782L116.537 318.77L116.594 318.753L116.663 318.743L116.723 318.731L116.786 318.725L116.849 318.719L116.918 318.709L116.984 318.708L117.042 318.705L117.109 318.704L117.175 318.704L117.236 318.706L117.306 318.711L117.367 318.714L117.431 318.722L117.495 318.73L117.559 318.738L117.552 318.803L117.55 318.864L117.543 318.928L117.535 318.993L117.531 319.063L117.53 319.124L117.522 319.189L117.515 319.253L117.513 319.315L117.506 319.379L117.498 319.444L117.496 319.505L117.493 319.575L117.485 319.64L117.478 319.704L117.476 319.766L117.469 319.83L117.405 319.822L117.338 319.823L117.277 319.82L117.213 319.812L117.15 319.818L117.089 319.816L117.026 319.822L116.968 319.825L116.905 319.832L116.847 319.835L116.787 319.847L116.73 319.85L116.659 319.869L116.593 319.884L116.528 319.899L116.465 319.92L116.403 319.941L116.341 319.962L116.282 319.988L116.223 320.015L116.169 320.038L116.114 320.07L116.047 320.109L115.992 320.155L115.943 320.199L115.899 320.239L115.868 320.287L115.841 320.333L115.817 320.407L115.813 320.477L115.821 320.541L115.848 320.6L115.854 320.612L115.902 320.682L115.966 320.728L116.008 320.749L116.069 320.766L116.136 320.765L116.197 320.768L116.266 320.759L116.34 320.746L116.42 320.73L116.471 320.715L116.525 320.706L116.582 320.689L116.642 320.677L116.704 320.656L116.776 320.637L116.847 320.619L116.918 320.601L116.986 320.576L117.051 320.561L117.122 320.543L117.185 320.522L117.25 320.507L117.315 320.491L117.375 320.48L117.441 320.464L117.501 320.452L117.561 320.44L117.635 320.427L117.707 320.423L117.776 320.414L117.848 320.41L117.915 320.409L117.981 320.408L118.042 320.411L118.106 320.419L118.167 320.421L118.234 320.435L118.302 320.449L118.367 320.472L118.429 320.489L118.488 320.515L118.551 320.546L118.605 320.575L118.662 320.61L118.711 320.643L118.757 320.684L118.803 320.725L118.843 320.769L118.887 320.819L118.931 320.87L118.969 320.923L119.011 320.982L119.047 321.044L119.053 321.055L119.089 321.117L119.119 321.183ZM115.863 324.57L115.807 324.602L115.751 324.634L115.696 324.666L115.64 324.698L115.584 324.731L115.528 324.763L115.473 324.795L115.417 324.827L115.355 324.863L115.3 324.895L115.244 324.927L115.188 324.959L115.132 324.991L115.077 325.024L115.021 325.056L114.965 325.088L114.909 325.12L114.854 325.152L114.798 325.184L114.743 325.217L114.687 325.249L114.631 325.281L114.575 325.313L114.52 325.345L114.464 325.377L114.408 325.41L114.352 325.442L114.297 325.474L114.235 325.509L114.179 325.542L114.124 325.574L114.068 325.606L114.012 325.638L113.956 325.67L113.901 325.703L113.845 325.735L113.789 325.767L113.733 325.799L113.678 325.831L113.622 325.863L113.566 325.896L113.51 325.928L113.455 325.96L113.399 325.992L113.344 326.024L113.288 326.057L113.232 326.089L113.171 326.124L113.115 326.156L113.059 326.188L113.003 326.221L112.948 326.253L112.892 326.285L112.836 326.317L112.78 326.349L112.725 326.382L112.669 326.414L112.636 326.357L112.604 326.301L112.571 326.244L112.539 326.188L112.506 326.131L112.473 326.075L112.441 326.018L112.408 325.962L112.376 325.905L112.343 325.849L112.31 325.792L112.278 325.736L112.245 325.679L112.212 325.623L112.18 325.566L112.147 325.51L112.115 325.453L112.082 325.397L112.052 325.346L112.02 325.289L111.987 325.233L111.955 325.176L111.922 325.12L111.889 325.063L111.857 325.007L111.824 324.95L111.791 324.894L111.759 324.837L111.726 324.781L111.694 324.724L111.661 324.668L111.628 324.611L111.596 324.554L111.563 324.498L111.53 324.441L111.498 324.385L111.465 324.328L111.433 324.272L111.4 324.215L111.367 324.159L111.335 324.102L111.302 324.046L111.27 323.99L111.237 323.933L111.204 323.877L111.172 323.82L111.139 323.764L111.106 323.707L111.074 323.651L111.041 323.594L111.008 323.537L110.976 323.481L110.943 323.424L110.911 323.368L110.881 323.317L110.849 323.261L110.816 323.204L110.783 323.147L110.751 323.091L110.718 323.034L110.685 322.978L110.653 322.921L110.62 322.865L110.588 322.808L110.555 322.752L110.522 322.695L110.49 322.639L110.457 322.582L110.424 322.526L110.392 322.469L110.359 322.413L110.327 322.356L110.294 322.3L110.35 322.268L110.405 322.235L110.461 322.203L110.517 322.171L110.572 322.139L110.628 322.107L110.684 322.074L110.74 322.042L110.795 322.01L110.851 321.978L110.907 321.946L110.963 321.913L111.018 321.881L111.074 321.849L111.124 321.82L111.18 321.788L111.236 321.756L111.291 321.724L111.347 321.691L111.403 321.659L111.459 321.627L111.514 321.595L111.57 321.563L111.626 321.531L111.682 321.498L111.737 321.466L111.793 321.434L111.849 321.402L111.905 321.37L111.96 321.338L112.016 321.305L112.072 321.273L112.128 321.241L112.183 321.209L112.239 321.177L112.295 321.144L112.351 321.112L112.406 321.08L112.462 321.048L112.518 321.016L112.573 320.984L112.629 320.951L112.685 320.919L112.735 320.89L112.791 320.858L112.847 320.826L112.902 320.794L112.958 320.761L113.014 320.729L113.069 320.697L113.125 320.665L113.181 320.633L113.237 320.601L113.292 320.568L113.348 320.536L113.404 320.504L113.46 320.472L113.515 320.44L113.548 320.496L113.577 320.547L113.61 320.604L113.643 320.66L113.675 320.717L113.705 320.768L113.737 320.824L113.77 320.881L113.799 320.931L113.832 320.988L113.865 321.044L113.894 321.095L113.927 321.152L113.959 321.208L113.992 321.265L114.021 321.316L114.054 321.372L113.998 321.404L113.943 321.437L113.887 321.469L113.831 321.501L113.775 321.533L113.72 321.565L113.669 321.594L113.614 321.627L113.558 321.659L113.502 321.691L113.446 321.723L113.391 321.755L113.335 321.787L113.279 321.82L113.223 321.852L113.168 321.884L113.112 321.916L113.056 321.948L113 321.981L112.95 322.01L112.895 322.042L112.839 322.074L112.783 322.106L112.727 322.138L112.672 322.17L112.616 322.203L112.56 322.235L112.504 322.267L112.449 322.299L112.393 322.331L112.337 322.364L112.281 322.396L112.231 322.425L112.176 322.457L112.12 322.489L112.064 322.521L112.008 322.553L111.953 322.585L111.897 322.618L111.929 322.674L111.962 322.731L111.995 322.787L112.027 322.844L112.06 322.9L112.089 322.951L112.122 323.008L112.154 323.064L112.187 323.121L112.22 323.177L112.252 323.234L112.285 323.29L112.341 323.258L112.397 323.226L112.452 323.194L112.508 323.162L112.564 323.129L112.62 323.097L112.675 323.065L112.731 323.033L112.781 323.004L112.837 322.972L112.893 322.94L112.948 322.907L113.004 322.875L113.06 322.843L113.116 322.811L113.171 322.779L113.227 322.746L113.283 322.714L113.339 322.682L113.394 322.65L113.45 322.618L113.506 322.585L113.561 322.553L113.617 322.521L113.673 322.489L113.729 322.457L113.779 322.428L113.835 322.396L113.89 322.363L113.946 322.331L114.002 322.299L114.057 322.267L114.113 322.235L114.169 322.203L114.225 322.17L114.257 322.227L114.287 322.278L114.319 322.334L114.352 322.39L114.381 322.441L114.414 322.498L114.446 322.554L114.476 322.605L114.508 322.662L114.541 322.718L114.574 322.775L114.603 322.826L114.636 322.882L114.668 322.939L114.698 322.99L114.73 323.046L114.675 323.078L114.619 323.11L114.563 323.143L114.507 323.175L114.452 323.207L114.396 323.239L114.34 323.271L114.284 323.304L114.234 323.332L114.179 323.365L114.123 323.397L114.067 323.429L114.011 323.461L113.956 323.493L113.9 323.526L113.844 323.558L113.788 323.59L113.733 323.622L113.677 323.654L113.621 323.686L113.565 323.719L113.51 323.751L113.454 323.783L113.398 323.815L113.343 323.847L113.287 323.879L113.237 323.909L113.181 323.941L113.125 323.973L113.07 324.005L113.014 324.037L112.958 324.069L112.902 324.102L112.847 324.134L112.791 324.166L112.823 324.223L112.859 324.285L112.892 324.341L112.924 324.398L112.96 324.46L112.993 324.516L113.026 324.573L113.061 324.635L113.094 324.692L113.127 324.748L113.163 324.81L113.195 324.867L113.251 324.834L113.307 324.802L113.362 324.77L113.418 324.738L113.474 324.706L113.53 324.674L113.585 324.641L113.641 324.609L113.697 324.577L113.758 324.542L113.814 324.51L113.87 324.477L113.926 324.445L113.981 324.413L114.037 324.381L114.093 324.349L114.149 324.316L114.204 324.284L114.26 324.252L114.316 324.22L114.371 324.188L114.427 324.155L114.483 324.123L114.539 324.091L114.594 324.059L114.65 324.027L114.706 323.995L114.761 323.962L114.817 323.93L114.879 323.895L114.934 323.863L114.99 323.831L115.046 323.798L115.102 323.766L115.157 323.734L115.213 323.702L115.269 323.67L115.325 323.637L115.38 323.605L115.413 323.662L115.442 323.713L115.475 323.769L115.508 323.826L115.54 323.882L115.57 323.933L115.602 323.99L115.635 324.046L115.664 324.097L115.697 324.153L115.729 324.21L115.759 324.261L115.791 324.317L115.824 324.374L115.857 324.43L115.886 324.481L115.919 324.538L115.863 324.57ZM111.79 326.921L111.735 326.953L111.679 326.985L111.617 327.021L111.562 327.053L111.506 327.085L111.451 327.117L111.394 327.15L111.339 327.182L111.278 327.217L111.222 327.249L111.166 327.281L111.11 327.314L111.055 327.346L110.999 327.378L110.938 327.413L110.882 327.446L110.826 327.478L110.77 327.51L110.738 327.453L110.705 327.397L110.672 327.34L110.64 327.284L110.607 327.227L110.574 327.17L110.542 327.114L110.509 327.057L110.476 327.001L110.444 326.944L110.411 326.888L110.378 326.831L110.346 326.774L110.313 326.718L110.281 326.661L110.248 326.605L110.215 326.548L110.182 326.491L110.15 326.435L110.117 326.378L110.085 326.322L110.052 326.265L110.019 326.209L109.986 326.152L109.954 326.095L109.921 326.039L109.889 325.982L109.856 325.926L109.823 325.869L109.79 325.813L109.758 325.756L109.725 325.7L109.693 325.643L109.66 325.587L109.627 325.53L109.595 325.473L109.562 325.417L109.529 325.36L109.497 325.304L109.464 325.247L109.431 325.19L109.399 325.134L109.366 325.077L109.364 325.138L109.36 325.209L109.358 325.27L109.351 325.335L109.353 325.402L109.345 325.466L109.344 325.528L109.345 325.595L109.338 325.659L109.336 325.721L109.329 325.785L109.331 325.852L109.323 325.917L109.322 325.978L109.323 326.045L109.316 326.11L109.314 326.171L109.31 326.242L109.308 326.303L109.301 326.367L109.303 326.435L109.301 326.496L109.293 326.561L109.295 326.627L109.288 326.692L109.286 326.754L109.279 326.818L109.28 326.885L109.279 326.947L109.271 327.011L109.273 327.078L109.265 327.143L109.263 327.204L109.26 327.275L109.258 327.336L109.236 327.349L109.173 327.317L109.119 327.288L109.056 327.256L109.002 327.227L108.939 327.196L108.885 327.166L108.822 327.134L108.768 327.105L108.705 327.074L108.651 327.045L108.588 327.013L108.535 326.984L108.472 326.952L108.417 326.923L108.355 326.891L108.301 326.862L108.238 326.83L108.178 326.805L108.121 326.77L108.061 326.744L108.004 326.709L107.945 326.683L107.887 326.648L107.828 326.622L107.77 326.587L107.711 326.561L107.654 326.526L107.594 326.5L107.537 326.465L107.477 326.439L107.42 326.405L107.36 326.379L107.303 326.344L107.243 326.318L107.276 326.374L107.309 326.431L107.341 326.487L107.374 326.544L107.407 326.601L107.439 326.657L107.472 326.714L107.505 326.77L107.537 326.827L107.57 326.884L107.599 326.934L107.632 326.991L107.665 327.047L107.697 327.104L107.73 327.161L107.763 327.217L107.795 327.274L107.828 327.33L107.861 327.387L107.893 327.443L107.926 327.5L107.959 327.557L107.991 327.613L108.024 327.67L108.057 327.726L108.089 327.783L108.122 327.84L108.155 327.896L108.187 327.953L108.22 328.009L108.253 328.066L108.285 328.123L108.315 328.174L108.347 328.23L108.38 328.287L108.413 328.343L108.445 328.4L108.478 328.456L108.511 328.513L108.543 328.569L108.576 328.626L108.609 328.683L108.641 328.739L108.586 328.771L108.53 328.804L108.474 328.836L108.418 328.868L108.363 328.9L108.307 328.932L108.251 328.964L108.195 328.997L108.14 329.029L108.084 329.061L108.028 329.093L107.972 329.125L107.917 329.157L107.861 329.19L107.805 329.222L107.749 329.254L107.694 329.286L107.638 329.318L107.582 329.351L107.549 329.294L107.517 329.237L107.484 329.181L107.452 329.125L107.419 329.068L107.387 329.012L107.354 328.955L107.321 328.899L107.289 328.842L107.256 328.786L107.223 328.729L107.191 328.673L107.158 328.616L107.125 328.56L107.093 328.503L107.06 328.447L107.028 328.39L106.995 328.334L106.966 328.283L106.933 328.226L106.9 328.17L106.868 328.113L106.835 328.057L106.802 328L106.77 327.944L106.737 327.887L106.705 327.83L106.672 327.774L106.639 327.717L106.607 327.661L106.574 327.604L106.541 327.548L106.509 327.491L106.476 327.435L106.443 327.378L106.411 327.322L106.378 327.265L106.346 327.209L106.313 327.152L106.28 327.096L106.248 327.039L106.215 326.983L106.183 326.927L106.15 326.87L106.117 326.813L106.085 326.757L106.052 326.7L106.019 326.644L105.987 326.587L105.954 326.531L105.922 326.474L105.889 326.418L105.856 326.361L105.824 326.305L105.794 326.254L105.762 326.197L105.729 326.141L105.696 326.084L105.664 326.028L105.631 325.971L105.599 325.915L105.566 325.858L105.533 325.802L105.501 325.745L105.468 325.689L105.435 325.632L105.403 325.576L105.37 325.519L105.338 325.463L105.305 325.406L105.272 325.35L105.24 325.293L105.207 325.237L105.263 325.204L105.319 325.172L105.369 325.143L105.424 325.111L105.48 325.079L105.536 325.047L105.586 325.018L105.642 324.986L105.698 324.953L105.753 324.921L105.803 324.892L105.859 324.86L105.915 324.828L105.971 324.796L106.021 324.767L106.076 324.735L106.132 324.702L106.188 324.67L106.238 324.641L106.294 324.609L106.35 324.577L106.404 324.606L106.461 324.641L106.52 324.666L106.577 324.701L106.631 324.73L106.689 324.765L106.742 324.794L106.805 324.826L106.859 324.855L106.913 324.884L106.97 324.918L107.024 324.947L107.087 324.979L107.141 325.008L107.198 325.042L107.252 325.072L107.312 325.097L107.369 325.132L107.422 325.161L107.48 325.196L107.534 325.225L107.596 325.256L107.651 325.285L107.707 325.32L107.761 325.349L107.815 325.378L107.878 325.409L107.932 325.439L107.989 325.473L108.043 325.502L108.1 325.537L108.16 325.563L108.217 325.597L108.271 325.626L108.273 325.565L108.272 325.498L108.279 325.434L108.277 325.367L108.279 325.306L108.278 325.239L108.285 325.175L108.284 325.108L108.285 325.046L108.287 324.985L108.291 324.915L108.293 324.854L108.292 324.787L108.294 324.726L108.298 324.656L108.299 324.594L108.298 324.528L108.3 324.467L108.302 324.405L108.306 324.335L108.308 324.274L108.306 324.207L108.308 324.146L108.312 324.076L108.314 324.015L108.316 323.953L108.314 323.886L108.322 323.822L108.32 323.755L108.322 323.694L108.321 323.627L108.328 323.563L108.327 323.496L108.328 323.434L108.384 323.402L108.44 323.37L108.49 323.341L108.546 323.309L108.601 323.277L108.657 323.245L108.707 323.216L108.763 323.183L108.819 323.151L108.874 323.119L108.925 323.09L108.98 323.058L109.036 323.026L109.092 322.994L109.142 322.965L109.198 322.932L109.253 322.9L109.309 322.868L109.36 322.839L109.415 322.807L109.471 322.775L109.503 322.831L109.536 322.888L109.569 322.944L109.601 323.001L109.634 323.057L109.667 323.114L109.699 323.171L109.732 323.227L109.764 323.284L109.797 323.34L109.83 323.397L109.862 323.453L109.895 323.51L109.928 323.566L109.96 323.623L109.993 323.679L110.026 323.736L110.058 323.792L110.088 323.843L110.12 323.9L110.153 323.956L110.185 324.013L110.218 324.069L110.251 324.126L110.283 324.182L110.316 324.239L110.349 324.295L110.381 324.352L110.414 324.408L110.446 324.465L110.479 324.521L110.512 324.578L110.544 324.634L110.577 324.691L110.609 324.747L110.642 324.804L110.675 324.86L110.707 324.917L110.74 324.973L110.773 325.03L110.805 325.086L110.838 325.143L110.871 325.199L110.903 325.256L110.936 325.312L110.968 325.369L111.001 325.425L111.034 325.482L111.066 325.538L111.099 325.595L111.132 325.651L111.164 325.708L111.197 325.764L111.229 325.821L111.259 325.872L111.291 325.928L111.324 325.985L111.357 326.041L111.389 326.098L111.422 326.154L111.455 326.211L111.487 326.267L111.52 326.324L111.552 326.38L111.585 326.437L111.618 326.493L111.65 326.55L111.683 326.606L111.716 326.663L111.748 326.719L111.781 326.776L111.813 326.832L111.846 326.889L111.79 326.921ZM104.345 328.959L104.298 328.918L104.243 328.874L104.192 328.836L104.145 328.795L104.094 328.757L104.039 328.713L103.992 328.672L103.941 328.634L103.889 328.595L103.843 328.554L103.788 328.51L103.742 328.469L103.69 328.431L103.638 328.393L103.592 328.352L103.537 328.308L103.486 328.27L103.439 328.228L103.387 328.19L103.333 328.146L103.286 328.105L103.235 328.067L103.242 328.131L103.255 328.191L103.265 328.261L103.272 328.325L103.285 328.385L103.292 328.449L103.302 328.519L103.31 328.583L103.322 328.643L103.329 328.707L103.336 328.771L103.353 328.837L103.36 328.901L103.367 328.965L103.379 329.026L103.387 329.089L103.397 329.159L103.404 329.223L103.417 329.283L103.424 329.347L103.434 329.417L103.447 329.478L103.454 329.541L103.51 329.509L103.566 329.477L103.621 329.445L103.677 329.413L103.733 329.38L103.789 329.348L103.844 329.316L103.9 329.284L103.95 329.255L104.006 329.223L104.062 329.19L104.118 329.158L104.173 329.126L104.229 329.094L104.285 329.062L104.341 329.03L104.396 328.997L104.345 328.959ZM107.074 329.644L107.018 329.676L106.968 329.705L106.912 329.737L106.856 329.77L106.8 329.802L106.745 329.834L106.695 329.863L106.639 329.895L106.583 329.927L106.527 329.96L106.472 329.992L106.416 330.024L106.366 330.053L106.31 330.085L106.254 330.117L106.198 330.15L106.143 330.182L106.093 330.211L106.037 330.243L105.981 330.275L105.929 330.237L105.883 330.196L105.832 330.158L105.777 330.114L105.731 330.073L105.679 330.035L105.627 329.997L105.582 329.956L105.53 329.918L105.478 329.88L105.432 329.839L105.377 329.795L105.325 329.757L105.279 329.716L105.227 329.678L105.172 329.71L105.116 329.742L105.06 329.774L105.005 329.807L104.954 329.836L104.899 329.868L104.843 329.9L104.787 329.932L104.731 329.964L104.676 329.997L104.62 330.029L104.565 330.061L104.508 330.093L104.453 330.125L104.403 330.154L104.347 330.186L104.291 330.219L104.235 330.251L104.18 330.283L104.124 330.315L104.068 330.347L104.013 330.379L103.957 330.412L103.901 330.444L103.851 330.473L103.795 330.505L103.74 330.537L103.683 330.569L103.628 330.602L103.635 330.665L103.648 330.726L103.655 330.79L103.665 330.859L103.678 330.919L103.685 330.983L103.692 331.047L103.704 331.107L103.712 331.171L103.719 331.235L103.731 331.295L103.742 331.364L103.749 331.428L103.761 331.489L103.768 331.553L103.712 331.585L103.657 331.617L103.601 331.649L103.545 331.681L103.49 331.713L103.428 331.749L103.373 331.781L103.317 331.813L103.261 331.845L103.205 331.878L103.15 331.91L103.094 331.942L103.038 331.974L102.982 332.006L102.927 332.038L102.865 332.074L102.809 332.106L102.754 332.138L102.698 332.17L102.642 332.202L102.635 332.139L102.628 332.075L102.621 332.011L102.611 331.942L102.598 331.882L102.591 331.818L102.584 331.754L102.577 331.691L102.57 331.627L102.56 331.557L102.552 331.494L102.546 331.43L102.533 331.369L102.526 331.306L102.519 331.242L102.508 331.173L102.501 331.109L102.494 331.045L102.487 330.981L102.48 330.918L102.468 330.857L102.457 330.788L102.45 330.724L102.443 330.66L102.436 330.596L102.429 330.533L102.422 330.469L102.411 330.4L102.399 330.339L102.392 330.275L102.385 330.211L102.378 330.148L102.371 330.084L102.36 330.015L102.353 329.951L102.346 329.887L102.333 329.827L102.326 329.763L102.319 329.699L102.309 329.63L102.302 329.566L102.295 329.502L102.288 329.439L102.281 329.375L102.268 329.314L102.261 329.251L102.251 329.181L102.244 329.118L102.236 329.054L102.229 328.99L102.223 328.927L102.215 328.863L102.199 328.797L102.192 328.733L102.185 328.669L102.178 328.606L102.171 328.542L102.164 328.478L102.154 328.409L102.147 328.345L102.134 328.284L102.127 328.221L102.12 328.157L102.113 328.093L102.103 328.024L102.095 327.96L102.088 327.896L102.081 327.832L102.068 327.772L102.061 327.708L102.051 327.639L102.044 327.575L102.037 327.511L102.03 327.448L102.023 327.384L102.016 327.32L102 327.254L101.993 327.19L101.986 327.126L101.979 327.063L102.034 327.031L102.085 327.002L102.14 326.969L102.196 326.937L102.252 326.905L102.302 326.876L102.358 326.844L102.413 326.812L102.469 326.779L102.519 326.751L102.575 326.718L102.631 326.686L102.687 326.654L102.737 326.625L102.792 326.593L102.848 326.561L102.904 326.528L102.954 326.5L103.01 326.467L103.062 326.505L103.113 326.543L103.165 326.581L103.22 326.625L103.266 326.666L103.317 326.704L103.369 326.742L103.421 326.78L103.473 326.818L103.527 326.862L103.579 326.9L103.631 326.938L103.677 326.979L103.729 327.017L103.78 327.055L103.835 327.099L103.887 327.137L103.938 327.175L103.99 327.213L104.042 327.251L104.088 327.292L104.143 327.336L104.194 327.374L104.246 327.412L104.298 327.45L104.35 327.487L104.401 327.526L104.456 327.569L104.502 327.61L104.554 327.648L104.605 327.686L104.657 327.724L104.709 327.762L104.764 327.806L104.815 327.844L104.867 327.882L104.913 327.923L104.965 327.961L105.016 327.999L105.068 328.037L105.123 328.081L105.175 328.119L105.226 328.156L105.278 328.195L105.324 328.236L105.376 328.274L105.43 328.317L105.482 328.355L105.534 328.393L105.586 328.431L105.637 328.469L105.689 328.507L105.738 328.554L105.79 328.592L105.841 328.63L105.893 328.668L105.945 328.706L105.996 328.744L106.051 328.788L106.103 328.826L106.149 328.867L106.201 328.905L106.253 328.943L106.304 328.981L106.359 329.025L106.411 329.063L106.463 329.101L106.514 329.139L106.56 329.18L106.612 329.218L106.667 329.262L106.718 329.3L106.77 329.338L106.822 329.376L106.873 329.414L106.925 329.451L106.974 329.498L107.026 329.536L107.078 329.574L107.129 329.612L107.074 329.644ZM101.887 331.938L101.862 331.998L101.84 332.048L101.814 332.108L101.786 332.162L101.761 332.222L101.733 332.276L101.705 332.33L101.671 332.387L101.637 332.444L101.603 332.501L101.566 332.553L101.532 332.61L101.489 332.665L101.452 332.716L101.409 332.771L101.372 332.823L101.332 332.869L101.291 332.915L101.251 332.961L101.205 333.01L101.165 333.055L101.116 333.099L101.072 333.139L101.023 333.183L100.974 333.226L100.921 333.264L100.863 333.305L100.811 333.343L100.753 333.384L100.7 333.422L100.642 333.463L100.581 333.498L100.519 333.534L100.458 333.569L100.402 333.601L100.343 333.628L100.279 333.658L100.22 333.684L100.161 333.71L100.102 333.737L100.04 333.758L99.9773 333.779L99.9207 333.796L99.8583 333.817L99.7984 333.829L99.7362 333.85L99.676 333.862L99.6129 333.869L99.553 333.881L99.4844 333.89L99.421 333.897L99.3578 333.903L99.2948 333.909L99.228 333.91L99.1674 333.908L99.101 333.908L99.0399 333.906L98.9792 333.903L98.9148 333.895L98.8508 333.887L98.7867 333.879L98.7279 333.868L98.6695 333.856L98.6074 333.839L98.5491 333.828L98.487 333.811L98.4253 333.794L98.3689 333.773L98.3095 333.748L98.253 333.727L98.199 333.698L98.1395 333.672L98.0856 333.643L98.0317 333.614L97.9744 333.579L97.9203 333.55L97.8689 333.512L97.8171 333.474L97.7653 333.436L97.7139 333.398L97.671 333.363L97.6192 333.325L97.5786 333.28L97.5328 333.239L97.489 333.189L97.4428 333.148L97.399 333.098L97.364 333.05L97.3201 333L97.2853 332.952L97.247 332.899L97.2091 332.845L97.1709 332.792L97.135 332.73L97.1024 332.673L97.0959 332.662L97.0632 332.606L97.0329 332.54L97.0003 332.484L96.9729 332.424L96.9427 332.359L96.9214 332.296L96.8943 332.236L96.8761 332.179L96.8603 332.113L96.8389 332.05L96.826 331.989L96.8101 331.923L96.7976 331.863L96.7873 331.793L96.7801 331.73L96.7731 331.666L96.7661 331.602L96.7588 331.538L96.7574 331.471L96.7593 331.41L96.7609 331.349L96.7627 331.287L96.7647 331.226L96.7718 331.162L96.7793 331.097L96.7865 331.033L96.7972 330.974L96.8132 330.912L96.8239 330.853L96.8401 330.791L96.8563 330.729L96.8756 330.672L96.8975 330.607L96.9169 330.55L96.9417 330.491L96.9702 330.437L96.9951 330.377L97.0236 330.323L97.0517 330.269L97.0855 330.212L97.1195 330.155L97.1533 330.097L97.1903 330.046L97.2276 329.994L97.2669 329.934L97.3017 329.891L97.3475 329.842L97.3849 329.79L97.4284 329.75L97.4686 329.704L97.518 329.661L97.5583 329.615L97.6075 329.571L97.6599 329.534L97.7093 329.49L97.7617 329.452L97.8141 329.415L97.8665 329.377L97.9193 329.339L97.9805 329.303L98.0362 329.271L98.0974 329.236L98.1586 329.2L98.2235 329.171L98.2881 329.141L98.3437 329.109L98.4026 329.082L98.4704 329.058L98.524 329.035L98.5862 329.014L98.6485 328.993L98.7053 328.975L98.7618 328.958L98.8185 328.94L98.8787 328.928L98.9353 328.91L98.9895 328.902L99.0497 328.889L99.1128 328.883L99.1759 328.877L99.2394 328.87L99.3058 328.87L99.3688 328.864L99.43 328.866L99.4963 328.865L99.5571 328.868L99.6238 328.867L99.6878 328.875L99.7486 328.878L99.813 328.886L99.877 328.894L99.9446 328.908L100.009 328.916L100.001 328.981L99.9852 329.043L99.9777 329.107L99.9649 329.175L99.9575 329.24L99.947 329.298L99.9339 329.366L99.9268 329.431L99.9161 329.49L99.9033 329.557L99.8958 329.622L99.883 329.689L99.8723 329.748L99.8651 329.813L99.8521 329.881L99.8448 329.945L99.8285 330.007L99.8213 330.072L99.757 330.064L99.6897 330.05L99.6286 330.047L99.5645 330.039L99.5038 330.037L99.4427 330.034L99.3819 330.032L99.3155 330.032L99.2577 330.035L99.2002 330.038L99.1456 330.047L99.0857 330.059L99.0259 330.071L98.969 330.089L98.9068 330.11L98.8447 330.131L98.7857 330.157L98.7212 330.187L98.6564 330.217L98.5951 330.252L98.5395 330.284L98.4871 330.322L98.4399 330.357L98.3908 330.4L98.3473 330.441L98.3066 330.487L98.2664 330.532L98.2294 330.584L98.1923 330.635L98.1639 330.69L98.1358 330.743L98.1073 330.798L98.088 330.854L98.0684 330.91L98.0491 330.967L98.0383 331.026L98.0223 331.088L98.0148 331.152L98.01 331.208L98.0081 331.269L98.0099 331.336L98.0079 331.398L98.0149 331.461L98.0275 331.522L98.0348 331.586L98.0506 331.652L98.0719 331.714L98.09 331.772L98.1147 331.84L98.1418 331.9L98.1691 331.96L98.2051 332.022L98.2116 332.033L98.2442 332.09L98.2821 332.143L98.317 332.191L98.3553 332.244L98.3958 332.288L98.4365 332.333L98.477 332.377L98.5231 332.418L98.5657 332.454L98.6208 332.498L98.6725 332.536L98.7296 332.571L98.7836 332.6L98.8377 332.629L98.8971 332.655L98.9535 332.675L99.0152 332.692L99.0717 332.712L99.1301 332.724L99.1945 332.732L99.2585 332.74L99.3193 332.742L99.3803 332.745L99.4435 332.739L99.5066 332.732L99.57 332.726L99.6355 332.711L99.7009 332.695L99.7635 332.674L99.8256 332.654L99.8845 332.627L99.9491 332.597L100.01 332.562L100.077 332.523L100.136 332.482L100.194 332.441L100.246 332.403L100.295 332.36L100.344 332.316L100.39 332.267L100.434 332.227L100.471 332.176L100.503 332.127L100.54 332.076L100.566 332.03L100.594 331.976L100.561 331.92L100.529 331.863L100.496 331.807L100.463 331.75L100.428 331.688L100.395 331.632L100.362 331.575L100.33 331.519L100.297 331.462L100.241 331.494L100.191 331.523L100.135 331.555L100.08 331.588L100.024 331.62L99.9736 331.649L99.9179 331.681L99.8622 331.713L99.8066 331.745L99.7563 331.774L99.7006 331.806L99.6449 331.839L99.5892 331.871L99.5389 331.9L99.4832 331.932L99.4506 331.875L99.4212 331.825L99.3885 331.768L99.3559 331.712L99.3233 331.655L99.2939 331.604L99.2613 331.548L99.2287 331.491L99.196 331.435L99.1666 331.384L99.134 331.327L99.1014 331.271L99.0688 331.214L99.0394 331.163L99.007 331.107L99.0627 331.075L99.1186 331.043L99.1743 331.01L99.2299 330.978L99.2856 330.946L99.3412 330.914L99.3973 330.882L99.4529 330.85L99.5085 330.818L99.5642 330.785L99.6202 330.753L99.6758 330.721L99.7315 330.689L99.7871 330.657L99.8431 330.624L99.8988 330.592L99.9545 330.56L100.01 330.528L100.066 330.496L100.122 330.463L100.177 330.431L100.233 330.399L100.289 330.367L100.345 330.335L100.4 330.303L100.456 330.27L100.512 330.238L100.568 330.206L100.623 330.174L100.679 330.142L100.735 330.109L100.791 330.077L100.846 330.045L100.879 330.101L100.911 330.158L100.944 330.214L100.973 330.265L101.006 330.322L101.039 330.378L101.071 330.435L101.104 330.491L101.137 330.548L101.166 330.599L101.199 330.655L101.231 330.712L101.264 330.768L101.296 330.825L101.329 330.881L101.362 330.938L101.391 330.989L101.424 331.045L101.456 331.102L101.489 331.158L101.522 331.215L101.554 331.271L101.587 331.328L101.616 331.379L101.649 331.435L101.681 331.492L101.714 331.548L101.747 331.605L101.779 331.661L101.809 331.712L101.841 331.769L101.874 331.825L101.907 331.882L101.887 331.938Z" fill="#1D2135"/>
<path d="M92.6488 320.076L95.0645 318.681L93.9754 316.795L91.5597 318.19L89.3364 314.339L91.8482 312.889L90.7592 311.002L86.1959 313.637L94.0559 327.251L98.6574 324.594L97.5682 322.708L95.0182 324.18L92.6488 320.076Z" fill="#1D2135"/>
<path d="M110.188 310.495L111.962 313.568C112.276 314.112 112.173 314.509 111.655 314.808L111.272 315.029C110.735 315.339 110.34 315.23 110.025 314.686L105.062 306.089C104.748 305.545 104.851 305.148 105.388 304.838L105.733 304.639C106.251 304.34 106.646 304.449 106.961 304.993L108.499 307.658L110.512 306.496L108.906 303.714C107.929 302.023 106.652 301.671 104.985 302.634L103.987 303.209C102.32 304.172 101.978 305.484 102.955 307.177L108.03 315.967C109.007 317.659 110.314 318.019 111.982 317.057L112.998 316.47C114.667 315.507 115.008 314.195 114.031 312.503L112.201 309.333L110.188 310.495Z" fill="#1D2135"/>
<path d="M106.286 320.189L108.338 319.005L100.478 305.391L98.4264 306.576L106.286 320.189Z" fill="#1D2135"/>
<path d="M98.9416 314.343C99.2561 314.887 99.1531 315.284 98.6354 315.583L97.7917 316.07L94.8946 311.052L95.7384 310.565C96.2561 310.266 96.651 310.375 96.9653 310.92L98.9416 314.343ZM95.0086 308.549L91.7877 310.408L99.6477 324.022L101.699 322.838L98.847 317.898L100.016 317.223C101.685 316.26 102.026 314.948 101.049 313.256L98.9607 309.638C97.9837 307.946 96.6767 307.586 95.0086 308.549Z" fill="#1D2135"/>
<path fill-rule="evenodd" clip-rule="evenodd" d="M106.002 336.766L117.746 329.986L112.904 335.442L106.002 336.766Z" fill="#1D2135"/>
</g>
</g>
<g clip-path="url(#clip2_13_181)">
<path fill-rule="evenodd" clip-rule="evenodd" d="M11.8412 8.4014C11.5229 8.43395 11.249 8.61902 11.0951 8.88334L11.089 8.89386C11.0255 9.0061 10.9831 9.13247 10.9681 9.26739L9.687 20.7147C9.63005 21.222 9.97232 21.684 10.4719 21.7748C13.632 22.3434 24.4126 24.5943 29.3479 29.5869C29.3479 29.5869 23.2679 26.5346 15.5182 27.6747C15.0811 27.7396 14.7424 28.0955 14.6931 28.5357C14.5563 29.77 14.2799 32.2505 14.1243 33.6529L13.8713 35.682C13.8118 36.1638 14.3088 36.5128 14.7423 36.2957C17.0727 35.1254 19.7092 35.3911 22.1942 35.7288C24.7396 36.0754 27.251 36.6874 29.6588 37.5788C32.2244 38.5286 34.6707 39.7987 36.9093 41.3723C37.2822 41.6343 37.7875 41.6016 38.124 41.2897L43.2921 36.5072C43.5973 36.2241 43.6925 35.7769 43.5245 35.3975C42.3616 32.7632 37.2429 23.2147 22.0742 17.1056C22.0742 17.1056 38.0458 17.0743 48.835 33.4674C49.1617 33.9644 49.8576 34.0424 50.2962 33.6373L54.8533 29.4194C54.9242 29.3542 54.9826 29.2804 55.0301 29.2017L55.0443 29.1771C55.2086 28.8821 55.2137 28.5152 55.0373 28.2123C53.7596 26.0225 49.189 19.0324 40.3098 13.906C33.5044 9.97626 24.1686 7.14207 11.8412 8.4014Z" fill="#252A43"/>
</g>
<defs>
<clipPath id="clip0_13_181">
<rect width="90.3856" height="70.6651" fill="white" transform="translate(147 138.394) rotate(-15)"/>
</clipPath>
<clipPath id="clip1_13_181">
<rect width="35" height="41" fill="white" transform="translate(79 311.5) rotate(-30)"/>
</clipPath>
<clipPath id="clip2_13_181">
<rect width="48.208" height="32.4477" fill="white" transform="translate(16.2239) rotate(30)"/>
</clipPath>
</defs>
</svg>
